<?xml version="1.0" encoding="utf-8"?>
<!-- Generator: Adobe Illustrator 27.0.1, SVG Export Plug-In . SVG Version: 6.00 Build 0)  -->
<svg version="1.1" id="Réteg_1" xmlns="http://www.w3.org/2000/svg" xmlns:xlink="http://www.w3.org/1999/xlink" x="0px" y="0px"
	 viewBox="0 0 5000 3000" style="enable-background:new 0 0 5000 3000;" xml:space="preserve">
<style type="text/css">
	.st0{fill:#FFFFFF;}
</style>
<path class="st0" d="M1334.6,1780.8"/>
<path class="st0" d="M1583.7,1369.5c0,19.8-6.4,36.1-19.1,48.9s-29,19.1-48.8,19.1h-172.5c-22.4,0-40.5,18.1-40.5,40.5v283
	c0,22.4-18.1,40.5-40.5,40.5l0,0c-22.4,0-40.5-18.1-40.5-40.5V925c0-22.4,18.1-40.5,40.5-40.5h253.5c19.8,0,36.1,6.3,48.8,19
	s19.1,29,19.1,49V1369.5z M1502.7,1324V997c0-22.4-18.1-40.5-40.5-40.5h-119c-22.4,0-40.5,18.1-40.5,40.5v327
	c0,22.4,18.1,40.5,40.5,40.5h119C1484.6,1364.5,1502.7,1346.4,1502.7,1324z"/>
<path class="st0" d="M2079.9,1801.5h-51.4c-6.9,0-13.1-4.4-15.3-10.9l-162.6-473c-1.7-4.8-0.9-10.1,1.9-14.4l1.7-2.6
	c3-4.5,8.1-7.1,13.4-7.1h120.1c9,0,16.2-7.3,16.2-16.2V972.7c0-9-7.3-16.2-16.2-16.2h-176.6c-9,0-16.2,7.3-16.2,16.2v812.6
	c0,9-7.3,16.2-16.2,16.2h-48.6c-9,0-16.2-7.3-16.2-16.2V900.7c0-9,7.3-16.2,16.2-16.2h286.8c20,0,36.3,6.3,49,19s19,29,19,49v343.1
	c0,45.3-29.6,68-88.8,68c-5.8,0-14.4-0.3-25.7-0.9c-0.1,0-0.2,0-0.3,0c-11.6-0.6-20,10.8-16.1,21.7
	c47.2,131.5,94.3,263.4,141.2,395.6C2099,1790.4,2091.1,1801.5,2079.9,1801.5z"/>
<g>
	<path class="st0" d="M3021.3,1733.5c0,20-6.4,36.3-19.2,49c-12.8,12.7-29.1,19-48.7,19h-231.1c-20,0-36.3-6.3-49-19s-19-29-19-49
		V952.5c0-20,6.3-36.3,19-49s29-19,49-19h231.1c19.6,0,35.9,6.3,48.7,19c12.8,12.7,19.2,29,19.2,49v169c0,22.6-18.4,41-41,41l0,0
		c-22.6,0-41-18.4-41-41v-124c0-22.6-18.4-41-41-41h-122c-22.6,0-41,18.4-41,41v691c0,22.6,18.4,41,41,41h122c22.6,0,41-18.4,41-41
		v-143c0-22.6,18.4-41,41-41l0,0c22.6,0,41,18.4,41,41V1733.5z"/>
</g>
<path class="st0" d="M3210.2,1800.7L3210.2,1800.7c-22.4,0-40.5-18.1-40.5-40.5v-836c0-22.4,18.1-40.5,40.5-40.5l0,0
	c22.4,0,40.5,18.1,40.5,40.5v836C3250.7,1782.6,3232.5,1800.7,3210.2,1800.7z"/>
<g>
	<path class="st0" d="M3675.2,1801.5h-280c-19.9,0-36-16.1-36-36v-1.6c0-3.7,0.6-7.5,1.7-11l241.1-749.3c7.5-23.2-9.9-47-34.3-47
		h-147.6c-19.9,0-36-16.1-36-36l0,0c0-19.9,16.1-36,36-36h255c19.9,0,36,16.1,36,36v0.5c0,3.7-0.6,7.5-1.7,11l-241.2,750.5
		c-7.5,23.2,9.9,47,34.3,47h172.6c19.9,0,36,16.1,36,36l0,0C3711.2,1785.4,3695.1,1801.5,3675.2,1801.5z"/>
</g>
<path class="st0" d="M2502.1,1011.2h-255.4c-11.5,0-20.8-9.3-20.8-20.8v-85c0-11.5,9.3-20.8,20.8-20.8h255.4
	c11.5,0,20.8,9.3,20.8,20.8v85C2522.9,1001.8,2513.6,1011.2,2502.1,1011.2z"/>
<path class="st0" d="M2502.1,1801.5h-255.4c-11.5,0-20.8-9.3-20.8-20.8v-85.1c0-11.5,9.3-20.8,20.8-20.8h255.4
	c11.5,0,20.8,9.3,20.8,20.8v85.1C2522.9,1792.2,2513.6,1801.5,2502.1,1801.5z"/>
<path class="st0" d="M2504.4,1405.6H2249c-11.5,0-20.8-9.3-20.8-20.8v-85.1c0-11.5,9.3-20.8,20.8-20.8h255.4
	c11.5,0,20.8,9.3,20.8,20.8v85.1C2525.2,1396.2,2515.9,1405.6,2504.4,1405.6z"/>
</svg>
